<?xml version="1.0" encoding="utf-8"?>
<!-- Svg Vector Icons : http://www.onlinewebfonts.com/icon -->
<!DOCTYPE svg PUBLIC "-//W3C//DTD SVG 1.1//EN" "http://www.w3.org/Graphics/SVG/1.1/DTD/svg11.dtd">
<svg version="1.1" xmlns="http://www.w3.org/2000/svg" xmlns:xlink="http://www.w3.org/1999/xlink" x="0px" y="0px" viewBox="0 0 1000 1000" enable-background="new 0 0 1000 1000" xml:space="preserve">
<metadata> Svg Vector Icons : http://www.onlinewebfonts.com/icon </metadata>
<g><g transform="translate(0.000000,511.000000) scale(0.100000,-0.100000)"><path d="M962.4,4471l-516.1-539H273.1H100v-114.3c0-111.1,3.3-114.3,127.4-114.3h124.1l19.6-166.6c26.1-225.4,114.3-385.5,274.4-496.5c235.2-166.6,571.7-140.5,761.1,58.8l75.1,78.4l111.1-94.7c58.8-55.5,124.1-98,140.5-98c19.6,0,32.7-633.7,32.7-1715v-1715h-588H590v-114.3V-674h359.3h359.3v-1600.7v-1600.7h205.8h209.1l39.2-137.2c140.5-473.7,542.3-777.5,1029-777.5c476.9,0,882,294,1022.5,738.3l55.5,176.4h1202.1H6274v-71.9c3.3-218.9,290.7-591.3,571.7-738.3c143.8-78.4,202.5-88.2,473.7-88.2c274.4,0,329.9,9.8,476.9,88.2c277.7,147,486.7,418.1,588,770.9c6.5,26.1,85,39.2,241.7,39.2h228.7v1715v1715h-147h-147v1760.7c0,970.2-9.8,1790.1-22.9,1822.8c-16.3,42.5,6.5,32.7,91.5-35.9c222.2-189.5,434.5-228.7,666.4-120.9c231.9,104.5,375.7,339.7,375.7,617.4c0,98,6.5,104.5,114.3,104.5s114.3,6.5,114.3,114.3V3932h-156.8h-153.5l-441,539l-441,535.7l-3616.2,3.3H1478.5L962.4,4471z M8890.6,4412.2c431.2-516.1,405.1-480.2,343-480.2c-26.1,0-199.2,169.9-382.2,375.7l-333.2,375.7H5019.6H1521l-261.3-251.5c-254.8-248.3-254.8-248.3,32.7,49l294,300.5h3498.6h3501.9L8890.6,4412.2z M2785.2,2971.6c218.9-94.7,427.9-52.3,633.7,120.9l101.3,88.2l62.1-71.9c84.9-91.5,300.5-189.5,431.2-189.5c140.5,0,310.3,71.9,418.1,179.7l84.9,84.9l88.2-81.7c238.5-228.7,578.2-235.2,816.7-19.6l111.1,101.3l101.3-94.7c218.8-212.3,574.9-212.3,790.5-3.3l101.3,98l111-101.3c111.1-98,271.2-163.3,414.9-163.3c107.8,0,303.8,88.2,401.8,182.9l85,81.7l104.5-98c58.8-55.5,163.3-114.3,235.2-133.9l127.4-35.9V1237V-445.3H6698.7H5392V404v849.3H4052.7H2713.3V404v-849.3H2501h-212.3v1705.2v1705.2l104.5,107.8l104.5,107.8l81.7-78.4C2628.4,3056.5,2719.9,2997.7,2785.2,2971.6z M8364.7,1253.3V-445.3H8283h-81.7v1698.7V2952h81.7h81.7V1253.3z M2125.3,1237V-445.3h-81.7H1962V1237v1682.3h81.7h81.7V1237z M5163.3,714.3V404H4052.7H2942v287.5c0,160.1,9.8,300.5,22.9,310.3c9.8,13.1,509.6,22.9,1110.7,22.9h1087.8V714.3z M5163.3-135v-310.3H4052.7H2942V-135v310.3h1110.7h1110.7V-135z M3138-2963.9c516.1-232,653.3-885.3,280.9-1326.3c-290.7-346.3-921.2-359.3-1234.8-22.9c-222.1,238.5-290.7,653.3-153.5,944.1c81.7,173.1,307.1,382.2,460.6,431.2C2677.4-2879,2974.7-2888.8,3138-2963.9z M7708.1-2980.3c633.7-316.9,588-1257.7-78.4-1535.3c-130.7-52.3-405.1-58.8-574.9-13.1c-153.5,42.5-405.1,264.6-496.5,437.8c-98,186.2-98,539,0,725.2c166.6,313.6,418.1,467.1,764.4,470.4C7489.2-2895.3,7574.1-2914.9,7708.1-2980.3z"/><path d="M2572.9-3202.4c-365.9-133.9-516.1-561.8-307.1-872.2c117.6-173.2,231.9-235.2,444.3-251.5c258.1-19.6,454.1,84.9,555.3,297.3C3497.3-3551.9,3056.3-3026,2572.9-3202.4z"/><path d="M7120.1-3186.1c-245-78.4-388.8-284.2-388.8-552c0-506.3,656.6-722,983.3-323.4c196,238.5,104.5,682.8-166.6,823.2C7430.4-3176.2,7227.9-3153.4,7120.1-3186.1z"/></g></g>
</svg>